<?xml version="1.0" standalone="no"?>
<!DOCTYPE svg PUBLIC "-//W3C//DTD SVG 20010904//EN"
 "http://www.w3.org/TR/2001/REC-SVG-20010904/DTD/svg10.dtd">
<svg version="1.0" xmlns="http://www.w3.org/2000/svg"
 width="1280.000000pt" height="916.000000pt" viewBox="0 0 1280.000000 916.000000"
 preserveAspectRatio="xMidYMid meet">

<g transform="translate(0.000000,916.000000) scale(0.100000,-0.100000)"
fill="#000000" stroke="none">
<path d="M6113 8651 c-69 -23 -123 -60 -166 -113 -49 -61 -65 -96 -77 -170
-25 -160 50 -305 197 -379 62 -31 76 -34 158 -34 78 0 98 4 150 28 76 35 138
95 178 172 29 55 31 68 31 155 0 75 -5 105 -22 142 -24 55 -91 131 -143 164
-85 53 -211 68 -306 35z"/>
<path d="M2995 7883 c-33 -5 -267 -67 -895 -238 -69 -19 -350 -95 -625 -169
-969 -261 -994 -268 -1048 -300 -111 -67 -141 -177 -94 -342 25 -87 51 -183
81 -294 8 -30 30 -113 50 -185 78 -288 130 -480 181 -670 30 -110 66 -243 80
-295 15 -52 35 -126 45 -165 10 -38 27 -104 39 -145 11 -41 52 -194 91 -340
39 -146 92 -339 117 -430 25 -91 51 -190 59 -220 28 -105 155 -576 179 -660
13 -47 49 -179 80 -295 90 -335 155 -573 180 -665 13 -47 35 -130 50 -185 69
-258 88 -313 124 -362 52 -70 127 -105 223 -105 78 0 61 -4 638 161 157 45
323 93 370 106 244 69 444 125 568 159 236 66 278 78 360 100 48 14 139 39
202 56 63 18 138 39 165 48 l50 16 -35 6 c-69 12 -110 55 -110 116 0 14 23
209 50 433 28 223 69 552 90 731 22 179 54 433 70 565 16 132 50 404 74 605
25 201 57 464 72 585 l27 220 -37 140 c-21 77 -44 160 -51 185 -7 25 -27 97
-45 160 -17 63 -42 153 -55 200 -36 131 -138 507 -174 645 -108 409 -101 400
-389 540 -109 53 -268 134 -354 181 -192 103 -272 125 -403 107z m-1591 -864
c21 -6 50 -22 64 -36 l25 -25 -129 -43 c-146 -48 -352 -101 -360 -92 -13 12 7
55 41 90 85 88 250 136 359 106z m341 -179 c9 -14 -56 -140 -72 -140 -26 0
-23 23 9 85 31 62 49 77 63 55z m-172 -70 c14 -43 15 -55 5 -61 -22 -14 -31
-5 -49 48 -13 37 -14 54 -6 62 19 19 31 7 50 -49z m265 -102 c2 -11 -12 -21
-47 -33 -51 -17 -71 -14 -71 9 0 12 85 46 105 42 6 -2 11 -10 13 -18z m-184
-9 c38 -18 60 -72 46 -114 -32 -97 -163 -98 -188 -2 -23 86 60 153 142 116z
m-167 -45 c3 -9 -3 -23 -16 -35 -26 -24 -26 -37 -4 -101 16 -43 16 -50 3 -58
-32 -21 -44 -5 -69 84 -19 71 -21 90 -11 96 7 5 18 6 25 4 6 -3 18 2 25 11 16
19 39 19 47 -1z m-300 -149 c32 -99 36 -117 23 -125 -8 -5 -19 -8 -25 -7 -5 2
-27 54 -47 117 -38 114 -38 129 -1 130 6 0 29 -52 50 -115z m161 95 c9 -11 27
-51 40 -88 21 -63 21 -68 5 -80 -10 -7 -23 -10 -30 -8 -7 3 -25 -1 -40 -9 -37
-20 -57 -19 -75 3 -38 44 -30 77 27 112 19 12 35 26 35 31 0 18 -33 8 -57 -17
-28 -30 -47 -22 -41 17 2 16 15 30 38 41 46 23 76 23 98 -2z m-280 -50 c17
-11 32 -24 32 -29 0 -16 -38 -23 -59 -12 -55 30 -114 -7 -109 -68 4 -48 45
-78 90 -65 18 6 38 20 45 34 30 60 76 46 47 -15 -22 -48 -55 -68 -109 -67 -54
0 -81 14 -105 55 -26 42 -25 86 3 128 41 60 105 76 165 39z m445 -178 c57 -15
91 -52 103 -114 4 -17 -30 -77 -62 -110 -24 -25 -108 -40 -154 -28 -65 18 -83
39 -84 101 0 58 19 119 38 119 6 0 21 11 33 23 23 25 55 27 126 9z m1429 -937
c47 -8 114 -25 149 -37 l63 -23 17 -70 c19 -83 48 -167 49 -142 0 10 -9 43
-19 75 -29 86 -35 122 -21 122 7 0 50 -23 96 -50 98 -60 228 -178 288 -264 52
-73 128 -215 121 -226 -2 -4 -23 -10 -45 -14 -22 -3 -61 -14 -87 -23 -63 -21
-206 -52 -215 -46 -5 2 -8 13 -8 24 0 11 -11 53 -24 92 -13 40 -29 97 -35 127
-15 72 -50 171 -51 143 0 -12 5 -34 11 -50 11 -29 62 -214 80 -293 11 -47 58
-221 89 -330 36 -125 36 -128 -2 -138 -26 -7 -39 -5 -60 10 -23 16 -98 52
-208 101 -33 15 -202 52 -265 59 -24 2 -31 9 -38 38 -5 19 -20 71 -33 115 -13
44 -30 107 -38 140 -9 33 -29 110 -46 170 -55 197 -129 479 -126 482 1 2 27 7
57 12 85 14 209 12 301 -4z m-369 -37 c24 -100 59 -227 66 -243 5 -11 16 -51
25 -90 9 -38 30 -119 47 -180 47 -172 99 -374 99 -388 0 -9 -20 -14 -59 -15
-98 -4 -232 -38 -325 -82 -48 -23 -89 -40 -90 -38 -4 6 -67 222 -82 283 -8 33
-21 80 -29 105 -8 25 -24 81 -35 125 -12 44 -32 121 -46 170 -13 50 -31 117
-39 150 -7 33 -17 68 -20 77 -7 19 -17 15 280 98 94 27 177 48 186 49 9 1 19
-9 22 -21z m-504 -150 c12 -41 70 -248 106 -383 15 -55 35 -129 45 -165 10
-36 35 -130 55 -210 l36 -145 -30 -25 c-16 -14 -50 -43 -77 -65 -72 -60 -140
-134 -181 -195 -21 -30 -44 -61 -52 -67 -18 -15 -65 -17 -91 -3 -22 12 -23 15
-105 315 -75 278 -91 335 -110 390 -8 22 -21 67 -29 100 -7 33 -23 93 -35 134
l-21 75 56 53 c92 86 187 145 314 193 97 37 106 37 119 -2z m-485 -345 c11
-38 32 -113 47 -168 16 -55 29 -111 29 -125 0 -14 11 -56 25 -95 13 -38 25
-79 25 -91 0 -11 8 -46 19 -77 l18 -57 -36 -10 c-20 -5 -78 -21 -129 -35 -51
-14 -97 -23 -102 -20 -6 4 -10 2 -10 -3 0 -9 -99 -13 -114 -5 -4 3 -2 9 5 14
11 6 10 12 -4 27 -15 16 -16 33 -12 122 3 57 10 109 16 116 7 8 6 13 -1 16 -7
2 -5 26 6 75 10 40 21 70 25 68 3 -3 7 6 7 18 0 12 10 47 22 77 24 58 126 220
138 220 4 0 16 -30 26 -67z m2125 -131 c7 -16 18 -53 25 -83 8 -30 28 -106 46
-169 36 -132 85 -314 155 -570 12 -47 30 -112 39 -144 9 -33 14 -61 12 -63 -4
-4 -24 -10 -171 -47 -33 -9 -81 -23 -106 -31 -71 -23 -75 -21 -92 43 -8 31
-27 102 -42 157 -60 220 -74 274 -99 365 -14 52 -39 145 -56 205 -36 132 -61
233 -64 259 -1 16 19 24 124 53 69 19 136 39 150 43 48 16 67 11 79 -18z
m-724 -331 c108 -22 230 -68 310 -116 42 -26 68 -35 93 -33 l35 3 27 -95 c45
-155 45 -158 18 -162 -17 -2 -34 -24 -68 -86 -99 -182 -216 -301 -390 -397
-108 -59 -279 -106 -400 -109 -126 -3 -290 35 -421 98 -32 16 -70 26 -97 26
-37 0 -50 -6 -78 -34 -39 -39 -43 -69 -18 -143 9 -26 22 -73 29 -103 7 -30 16
-65 20 -76 6 -18 2 -22 -22 -27 -68 -14 -174 -41 -244 -63 -82 -26 -103 -29
-79 -14 13 8 12 10 -2 10 -10 0 -18 -5 -18 -12 0 -6 -7 -3 -15 8 -8 10 -15 15
-14 9 7 -49 -16 -45 -29 5 -5 22 -6 37 -1 34 5 -3 9 -1 9 5 0 5 -5 13 -11 17
-6 3 -8 16 -5 27 3 12 1 26 -3 31 -5 6 -12 29 -15 51 -4 22 -14 45 -23 52 -12
9 -14 22 -10 52 3 28 1 38 -7 35 -7 -3 -18 19 -29 55 -15 50 -21 85 -30 182
-1 9 -7 15 -14 12 -7 -3 -14 2 -14 11 -1 9 -3 31 -5 49 -2 17 -4 40 -4 50 -1
9 -5 17 -11 17 -5 0 -9 8 -9 18 0 10 -4 22 -9 28 -15 15 -24 74 -12 74 6 0 11
5 11 11 0 6 -7 9 -15 5 -11 -4 -15 1 -15 17 0 13 -5 28 -12 35 -6 6 -11 34
-11 62 0 27 -3 50 -7 50 -5 0 -6 10 -3 23 4 18 3 19 -6 7 -7 -9 -11 -10 -11
-3 0 18 21 27 30 12 7 -10 12 -10 26 2 23 19 131 51 169 50 16 0 32 3 35 7 5
7 128 52 143 52 4 0 7 -11 7 -24 0 -23 14 -75 31 -111 5 -11 13 -42 18 -68 10
-57 42 -94 87 -103 56 -10 98 11 137 71 134 201 347 357 562 411 116 29 264
31 390 5z m-1605 -245 c0 -2 -7 -6 -15 -10 -8 -3 -15 -1 -15 4 0 6 7 10 15 10
8 0 15 -2 15 -4z m2153 -233 c14 -61 29 -118 97 -363 10 -36 27 -103 39 -150
13 -47 30 -112 40 -145 10 -33 24 -85 31 -115 7 -30 17 -62 21 -70 4 -8 15
-46 23 -85 8 -38 17 -77 21 -86 8 -20 -97 -135 -184 -201 -63 -47 -202 -120
-255 -134 -21 -5 -25 -2 -31 28 -4 18 -33 130 -65 248 -32 118 -84 310 -114
425 -31 116 -61 220 -66 232 -8 20 -3 27 46 63 120 90 233 227 289 354 24 55
34 64 71 65 17 1 23 -9 37 -66z m469 -413 c0 -69 -5 -156 -12 -195 -19 -116
-84 -278 -151 -376 -16 -23 -16 -23 -32 31 -9 30 -30 109 -48 175 -17 66 -40
149 -50 185 -55 196 -69 253 -64 258 3 3 67 23 142 44 212 60 197 58 206 29 4
-15 8 -82 9 -151z m-872 -222 c131 -479 190 -703 190 -716 0 -5 -8 -12 -17
-15 -108 -32 -436 -117 -452 -117 -5 0 -16 28 -25 63 -9 34 -25 96 -37 137
-11 41 -29 107 -39 145 -44 167 -148 550 -156 576 -4 14 6 18 58 24 115 12
231 45 318 89 47 24 88 44 91 45 3 0 34 -104 69 -231z m-927 178 c68 -30 133
-50 197 -61 178 -30 162 -21 182 -95 10 -36 29 -108 43 -160 28 -108 59 -224
105 -390 43 -153 81 -301 83 -320 4 -36 -260 -62 -403 -39 -109 17 -137 27
-144 52 -6 20 -25 88 -71 262 -87 324 -114 430 -125 490 -7 39 -16 75 -20 80
-4 6 -15 40 -24 76 -16 62 -16 69 -2 98 9 17 23 31 31 31 8 0 15 5 15 10 0 18
30 10 133 -34z m-626 -198 c-3 -8 -6 -5 -6 6 -1 11 2 17 5 13 3 -3 4 -12 1
-19z m501 -235 c12 -49 33 -131 48 -183 14 -52 34 -129 44 -170 10 -41 25 -93
33 -115 19 -52 28 -115 17 -115 -5 0 -15 6 -22 13 -7 8 -19 12 -26 9 -6 -2
-12 1 -12 7 0 6 -7 11 -15 11 -27 0 -156 84 -196 128 -22 23 -42 42 -45 42
-12 0 -83 74 -78 82 3 4 0 8 -6 8 -6 0 -8 5 -5 10 3 6 1 10 -4 10 -6 0 -11 8
-11 18 0 13 -2 14 -9 4 -6 -11 -10 -10 -16 5 -5 10 -7 24 -6 31 1 6 -3 12 -10
12 -19 0 -38 32 -39 63 0 16 -4 26 -10 22 -5 -3 -16 8 -25 25 -13 25 -14 35
-4 46 10 12 9 13 -6 8 -13 -5 -16 -4 -11 4 4 7 13 12 20 12 16 0 92 21 186 52
51 17 136 39 180 47 3 1 16 -38 28 -86z"/>
<path d="M1572 6608 c-19 -19 -14 -55 10 -72 12 -9 26 -16 30 -16 13 0 48 39
48 54 0 37 -61 61 -88 34z"/>
<path d="M1298 6456 c-20 -15 -23 -32 -8 -41 15 -9 40 14 40 36 0 22 -8 23
-32 5z"/>
<path d="M1390 4190 c0 -5 5 -10 11 -10 5 0 7 5 4 10 -3 6 -8 10 -11 10 -2 0
-4 -4 -4 -10z"/>
<path d="M1386 3997 c3 -10 9 -15 12 -12 3 3 0 11 -7 18 -10 9 -11 8 -5 -6z"/>
<path d="M1690 2961 c0 -5 5 -13 10 -16 6 -3 10 -2 10 4 0 5 -4 13 -10 16 -5
3 -10 2 -10 -4z"/>
<path d="M1741 2904 c0 -11 3 -14 6 -6 3 7 2 16 -1 19 -3 4 -6 -2 -5 -13z"/>
<path d="M9431 7649 c-118 -36 -194 -140 -193 -265 1 -203 211 -331 394 -241
32 16 71 45 88 65 36 44 70 129 70 176 0 92 -70 205 -154 248 -47 24 -153 33
-205 17z"/>
<path d="M5026 7580 c-200 -51 -338 -256 -307 -457 34 -221 254 -383 467 -344
180 34 312 163 344 339 42 233 -143 458 -385 468 -44 2 -97 -1 -119 -6z"/>
<path d="M7171 7559 c-106 -18 -197 -89 -251 -195 -21 -41 -25 -63 -25 -139 0
-78 4 -97 27 -146 35 -71 97 -132 168 -167 47 -23 68 -26 145 -26 78 0 98 3
146 27 67 32 142 108 172 175 17 37 22 66 22 137 0 78 -4 98 -28 146 -45 92
-142 169 -232 184 -77 12 -90 13 -144 4z"/>
<path d="M8350 7151 c-138 -45 -222 -157 -223 -296 0 -95 29 -160 99 -224 63
-58 123 -81 209 -81 86 0 146 23 209 81 70 64 99 129 99 224 0 169 -122 294
-293 301 -41 2 -86 0 -100 -5z"/>
<path d="M4736 6518 c-3 -13 -21 -156 -40 -318 -20 -162 -56 -461 -81 -665
-25 -203 -61 -498 -81 -655 -56 -461 -112 -915 -149 -1215 -19 -154 -50 -410
-70 -570 -19 -159 -39 -321 -44 -360 -6 -38 -12 -88 -13 -110 l-3 -40 285 0
285 0 17 130 c16 121 61 477 144 1155 19 157 41 337 49 400 19 140 158 1270
185 1500 11 91 24 199 30 240 21 151 60 484 60 507 l0 23 -285 0 -285 0 -4
-22z"/>
<path d="M5677 5618 c-15 -121 -34 -273 -143 -1158 -19 -157 -50 -411 -69
-565 -30 -243 -87 -704 -141 -1152 -9 -72 -14 -139 -10 -148 5 -14 29 -16 213
-13 l208 3 12 85 c7 47 28 216 47 375 145 1184 197 1599 200 1603 5 4 8 -10
61 -263 26 -121 73 -346 105 -500 59 -279 121 -578 206 -985 24 -118 50 -237
57 -265 l12 -50 221 -3 c173 -3 223 0 231 10 5 7 37 243 72 523 34 281 66 542
71 580 6 39 21 162 35 275 44 363 174 1423 185 1500 15 107 30 241 30 262 0
17 -16 18 -220 18 -121 0 -220 -4 -220 -9 0 -5 -42 -348 -94 -762 -52 -415
-109 -874 -127 -1021 -19 -148 -36 -268 -39 -268 -3 0 -22 82 -43 183 -20 100
-79 394 -132 652 -158 776 -245 1210 -245 1218 0 4 -105 7 -233 7 l-233 0 -17
-132z"/>
<path d="M7455 5738 c-2 -7 -13 -92 -25 -188 -11 -96 -28 -230 -36 -298 -8
-67 -14 -127 -12 -133 2 -7 93 -11 253 -12 l250 -2 -3 -35 c-4 -45 -69 -582
-82 -680 -6 -41 -21 -167 -35 -280 -13 -113 -42 -351 -64 -530 -97 -783 -110
-898 -113 -945 l-3 -50 220 -2 c121 -1 225 1 230 5 11 7 25 116 185 1417 44
358 84 684 90 725 5 41 17 134 25 205 9 72 18 140 20 152 l5 23 236 -3 c152
-2 240 1 248 8 8 6 25 116 45 285 18 151 35 292 38 313 l6 37 -737 0 c-580 0
-737 -3 -741 -12z"/>
<path d="M9117 5618 c-9 -73 -46 -371 -82 -663 -36 -291 -90 -730 -121 -975
-30 -245 -72 -589 -94 -765 -22 -176 -48 -387 -58 -470 -11 -82 -17 -153 -15
-158 6 -9 1284 -9 1300 1 7 5 27 125 50 315 l39 307 -26 0 c-14 0 -205 1 -425
3 l-400 2 2 35 c2 37 34 313 62 535 l16 130 371 3 372 2 11 83 c23 172 61 491
61 514 l0 23 -370 0 -370 0 5 38 c13 88 65 514 65 527 0 13 58 15 407 17 l407
3 13 105 c7 58 22 182 33 275 11 94 22 187 25 208 l5 37 -633 0 -633 0 -17
-132z"/>
<path d="M10770 5735 c0 -9 -11 -105 -25 -213 -14 -108 -40 -325 -60 -482 -19
-157 -50 -413 -69 -570 -20 -157 -54 -433 -76 -615 -78 -639 -112 -912 -134
-1088 -12 -98 -19 -180 -15 -183 4 -2 103 -4 219 -3 207 1 211 1 220 22 5 12
21 119 35 237 13 118 29 249 35 290 6 41 26 203 45 359 19 156 37 286 39 289
3 2 73 4 156 4 183 -1 233 -14 284 -73 18 -22 40 -61 47 -87 18 -60 18 -283 1
-582 -14 -246 -6 -435 19 -450 15 -10 468 -14 492 -4 30 11 23 96 -13 146 -49
69 -55 135 -41 398 19 352 16 569 -9 659 -25 89 -37 113 -89 178 l-39 50 61
49 c150 119 246 304 283 541 54 348 8 691 -118 880 -81 120 -175 186 -338 234
-71 21 -97 22 -492 26 -384 4 -418 4 -418 -12z m777 -597 c61 -15 126 -78 145
-138 17 -59 17 -257 -1 -338 -26 -115 -105 -213 -199 -243 -22 -7 -119 -14
-234 -16 -167 -4 -198 -2 -198 10 0 8 11 104 25 213 13 109 32 262 40 339 9
77 19 150 21 163 4 22 6 22 180 22 99 0 195 -5 221 -12z"/>
<path d="M5080 3548 c0 -24 -91 -755 -106 -856 -5 -34 -5 -34 28 -27 57 13
132 44 161 67 25 21 28 33 42 143 8 66 15 138 15 161 0 36 -122 509 -135 522
-3 3 -5 -1 -5 -10z"/>
<path d="M4380 1390 c0 -103 -1 -110 -20 -110 -18 0 -20 -7 -20 -65 0 -57 2
-65 19 -65 18 0 19 -10 23 -162 3 -141 6 -168 23 -197 29 -50 67 -74 117 -75
43 -1 43 -1 46 38 5 56 -4 81 -33 94 l-25 12 0 145 0 145 40 0 40 0 0 65 0 65
-40 0 -40 0 0 110 0 110 -65 0 -65 0 0 -110z"/>
<path d="M5250 1105 l0 -395 65 0 65 0 0 395 0 395 -65 0 -65 0 0 -395z"/>
<path d="M8442 1427 c-29 -31 -28 -61 4 -86 33 -26 58 -27 84 -1 39 39 11 110
-43 110 -13 0 -33 -10 -45 -23z"/>
<path d="M9962 1434 c-48 -33 -17 -114 44 -114 23 0 64 42 64 65 0 23 -41 65
-64 65 -12 0 -32 -7 -44 -16z"/>
<path d="M4795 1266 c-67 -31 -140 -113 -160 -179 -32 -108 -11 -206 62 -288
63 -69 127 -99 214 -99 107 0 185 37 245 116 l27 35 -48 49 -48 49 -29 -44
c-16 -23 -44 -50 -62 -59 -35 -17 -131 -22 -140 -8 -2 4 76 55 175 112 98 58
179 109 179 113 0 17 -52 108 -80 141 -75 85 -226 113 -335 62z m205 -124 c18
-11 35 -23 37 -28 3 -9 -259 -164 -278 -164 -8 0 -10 18 -7 53 5 61 33 108 82
138 41 25 120 25 166 1z"/>
<path d="M5625 1278 c-81 -29 -158 -108 -185 -191 -17 -53 -9 -172 15 -222 25
-51 89 -115 140 -140 25 -12 68 -21 117 -23 65 -3 85 0 130 20 62 29 106 65
130 105 l17 30 -48 47 -47 47 -25 -38 c-37 -57 -82 -83 -145 -83 -29 0 -55 4
-58 9 -3 5 74 55 172 111 97 57 179 104 181 106 2 2 -8 28 -23 59 -36 73 -103
139 -163 159 -52 18 -162 20 -208 4z m183 -138 c17 -11 32 -24 32 -28 0 -10
-255 -162 -271 -162 -19 0 -10 96 14 131 52 77 152 103 225 59z"/>
<path d="M6214 1266 c-60 -28 -115 -80 -146 -139 -19 -35 -23 -58 -23 -132 0
-74 4 -97 23 -132 54 -102 152 -163 264 -163 37 0 78 4 92 10 25 9 26 13 26
86 l0 77 -21 -19 c-14 -12 -40 -19 -82 -22 -52 -3 -67 0 -97 20 -108 74 -109
212 -1 285 44 30 122 31 169 3 l32 -20 0 75 c0 72 -1 76 -26 85 -49 19 -155
12 -210 -14z"/>
<path d="M6653 1264 c-178 -86 -225 -318 -93 -467 56 -65 111 -90 205 -95 106
-6 165 18 235 95 106 116 107 277 3 394 -65 72 -126 99 -223 99 -59 -1 -86 -6
-127 -26z m207 -119 c16 -8 42 -32 57 -52 24 -31 28 -46 28 -98 0 -52 -4 -67
-28 -98 -37 -49 -75 -67 -140 -67 -44 0 -62 6 -94 29 -42 30 -73 90 -73 139 1
60 52 133 110 155 30 11 112 7 140 -8z"/>
<path d="M7309 1278 c-13 -5 -32 -16 -41 -25 -17 -15 -18 -15 -18 6 0 21 -4
22 -62 19 l-63 -3 0 -280 0 -280 57 -3 57 -3 3 195 3 196 33 32 32 33 0 -228
0 -227 55 0 55 0 0 188 c0 184 0 188 25 225 14 20 30 37 35 37 6 0 10 -87 10
-225 l0 -225 60 0 60 0 0 241 c0 272 -6 300 -66 325 -40 17 -72 7 -101 -30
l-20 -25 -21 28 c-23 32 -57 42 -93 29z"/>
<path d="M8216 1265 c-35 -23 -36 -24 -36 -4 0 18 -6 20 -62 17 l-63 -3 0
-280 0 -280 57 -3 57 -3 3 193 c3 183 4 195 26 226 13 17 28 32 33 32 5 0 9
-93 9 -225 l0 -225 60 0 60 0 0 245 c0 261 -6 301 -48 324 -32 17 -56 13 -96
-14z"/>
<path d="M8773 1274 c-23 -9 -62 -33 -87 -55 -155 -136 -129 -380 52 -486 36
-21 61 -28 126 -31 45 -2 93 1 109 7 26 10 27 13 27 86 l0 75 -32 -20 c-41
-25 -117 -26 -165 -3 -114 54 -116 235 -2 293 50 26 124 26 167 0 l32 -20 0
75 c0 72 -1 76 -26 85 -37 15 -153 11 -201 -6z"/>
<path d="M9175 1276 c-34 -15 -80 -64 -90 -97 -8 -25 -12 -22 58 -41 55 -15
58 -15 68 3 11 22 39 25 57 7 7 -7 12 -29 12 -50 0 -36 -1 -38 -21 -27 -12 6
-42 9 -66 6 -163 -18 -220 -232 -88 -333 48 -36 137 -45 193 -20 34 16 40 16
67 2 17 -9 42 -16 58 -16 26 0 27 1 27 60 0 49 -3 61 -20 70 -19 10 -20 21
-20 161 0 164 -7 195 -56 241 -52 48 -118 61 -179 34z m83 -332 c45 -31 18
-114 -37 -114 -32 0 -44 8 -60 37 -15 30 -14 36 10 67 23 29 54 33 87 10z"/>
<path d="M9654 1271 c-190 -86 -241 -324 -103 -476 69 -75 129 -99 234 -93 44
2 86 8 93 12 8 4 12 34 12 82 l0 76 -34 -21 c-52 -33 -132 -29 -183 8 -42 30
-73 90 -73 139 1 43 35 107 70 132 48 34 127 39 180 11 l40 -21 0 74 c0 74 0
74 -31 85 -51 18 -158 13 -205 -8z"/>
<path d="M10272 1264 c-181 -90 -227 -317 -95 -465 65 -72 126 -99 223 -99
122 1 210 55 268 165 22 42 26 63 26 130 0 95 -27 158 -94 219 -63 57 -112 76
-201 76 -61 0 -85 -5 -127 -26z m227 -133 c36 -26 70 -90 71 -133 0 -49 -31
-109 -73 -139 -82 -59 -201 -30 -247 61 -39 76 -13 168 60 218 47 32 139 28
189 -7z"/>
<path d="M10906 1265 c-34 -23 -36 -23 -36 -5 0 18 -7 20 -65 20 l-65 0 0
-285 0 -285 59 0 60 0 3 193 c3 182 4 194 26 225 13 17 28 32 33 32 5 0 9 -93
9 -225 l0 -225 60 0 60 0 0 245 c0 261 -6 301 -48 324 -32 17 -56 13 -96 -14z"/>
<path d="M11252 1259 c-106 -53 -162 -144 -162 -266 0 -61 5 -80 33 -134 36
-70 102 -128 167 -148 129 -38 276 13 344 120 15 25 15 26 -32 72 l-48 48 -25
-38 c-37 -57 -82 -83 -145 -83 -29 0 -55 4 -58 9 -3 5 74 55 172 111 97 57
179 105 182 107 10 9 -56 117 -96 158 -53 52 -114 75 -204 75 -54 0 -78 -6
-128 -31z m216 -119 c17 -11 32 -24 32 -28 0 -10 -255 -162 -271 -162 -19 0
-10 96 14 131 52 77 152 103 225 59z"/>
<path d="M11836 1280 c-43 -13 -95 -68 -107 -114 -19 -71 0 -127 75 -214 53
-62 59 -96 21 -114 -20 -9 -34 -8 -67 5 -23 9 -43 16 -44 14 -5 -4 23 -137 30
-145 4 -4 34 -7 67 -6 103 2 169 67 169 166 0 53 -20 94 -83 172 -50 60 -57
90 -25 110 13 7 26 6 52 -7 l36 -17 0 74 0 74 -31 6 c-39 7 -56 7 -93 -4z"/>
<path d="M7660 1040 c0 -258 5 -292 51 -324 44 -30 125 -11 150 36 10 19 12
19 21 5 13 -24 61 -47 98 -47 l30 0 0 64 c0 55 -3 64 -20 69 -19 5 -20 14 -20
221 l0 216 -60 0 -60 0 0 -189 c0 -179 -1 -190 -22 -221 -46 -67 -48 -59 -48
184 l0 226 -60 0 -60 0 0 -240z"/>
<path d="M8425 1267 c-3 -7 -4 -134 -3 -282 l3 -270 63 -3 62 -3 0 286 0 285
-60 0 c-40 0 -62 -4 -65 -13z"/>
<path d="M9940 995 l0 -285 65 0 65 0 -2 283 -3 282 -62 3 -63 3 0 -286z"/>
</g>
</svg>
